<?xml version="1.0" standalone="no"?>
<svg viewBox="0 0 800 600" version="1.1" xmlns="http://www.w3.org/2000/svg" xmlns:xlink="http://www.w3.org/1999/xlink" stroke-linecap="round" stroke-linejoin="round" fill-rule="evenodd" xml:space="preserve" >
<defs >
<clipPath id="clipId0" >
<path d="M0,600 800,600 800,0 0,0 z" />
</clipPath>
</defs>
<g clip-path="url(#clipId0)" fill="none" stroke="rgb(0,0,0)" stroke-width="0.1" />
<g clip-path="url(#clipId0)" fill="none" stroke="rgb(0,0,0)" stroke-width="0.25" >
<polyline name="房间一" points="17.4631,150.167 17.4631,171.105 7.84314,171.105 7.84314,226.561 134.462,226.554 134.462,171.105 124.981,171.105 124.981,150.167 17.4631,150.167 " />
<polyline points="7.84314,229.391 134.463,229.391 134.463,305.779 7.84314,305.779 7.84314,229.391 " />
<polyline points="7.84314,308.614 134.476,308.614 134.476,449.802 7.84314,449.802 7.84314,308.614 " />
<polyline points="655.072,449.802 137.305,449.833 137.305,171.105 147.616,171.105 147.616,150.167 360.486,150.167 360.486,197.251 516.855,197.251 516.855,150.167 689.025,150.167 689.025,385.738 655.072,385.738 655.072,449.802 " />
<polyline points="691.854,150.167 792.157,150.167 792.157,346.67 691.854,346.67 691.854,150.167 " />
<polyline points="691.854,349.499 691.84,388.581 657.901,388.595 657.901,449.802 792.157,449.802 792.157,349.499 691.854,349.499 " />
<polyline points="134.462,171.105 124.981,171.105 124.981,150.167 17.4631,150.167 17.4631,171.105 7.84314,171.105 7.84314,226.561 134.462,226.554 134.462,171.105 " />
<polyline points="134.463,229.391 7.84314,229.391 7.84314,305.779 134.463,305.779 134.463,229.391 " />
<polyline points="134.476,308.614 7.84314,308.614 7.84314,449.802 134.476,449.802 134.476,308.614 " />
<polyline points="689.025,150.167 516.855,150.167 516.855,197.251 360.486,197.251 360.486,150.167 147.616,150.167 147.616,171.105 137.305,171.105 137.305,449.833 655.072,449.802 655.072,385.738 689.025,385.738 689.025,150.167 " />
<polyline points="792.157,150.167 691.854,150.167 691.854,346.67 792.157,346.67 792.157,150.167 " />
<polyline points="792.157,349.499 691.854,349.499 691.84,388.581 657.901,388.595 657.901,449.802 792.157,449.802 792.157,349.499 " />
</g>
</svg>
