<?xml version="1.0" standalone="no"?>
<svg viewBox="0 0 800 600" version="1.1" xmlns="http://www.w3.org/2000/svg" xmlns:xlink="http://www.w3.org/1999/xlink" stroke-linecap="round" stroke-linejoin="round" fill-rule="evenodd" xml:space="preserve" >
<defs >
<clipPath id="clipId0" >
<path d="M0,600 800,600 800,0 0,0 z" />
</clipPath>
</defs>
<g clip-path="url(#clipId0)" fill="none" stroke="rgb(0,0,0)" stroke-width="0.1" />
<g clip-path="url(#clipId0)" fill="none" stroke="rgb(0,0,0)" stroke-width="0.25" >
<polyline points="17.2262,460.314 792.157,460.314 " />
<polyline points="17.2262,453.69 785.534,453.69 " />
<polyline points="792.157,158.676 792.157,460.314 " />
<polyline points="785.534,161.435 785.534,453.69 " />
<polyline points="134.79,181.857 156.868,181.857 156.868,159.78 134.79,159.78 134.79,181.857 " />
<polyline points="134.79,161.787 136.798,159.78 " />
<polyline points="134.79,171.544 146.555,159.78 " />
<polyline points="134.79,181.301 156.312,159.78 " />
<polyline points="143.991,181.857 156.868,168.98 " />
<polyline points="153.748,181.857 156.868,178.737 " />
<polyline points="145.548,164.167 146.878,162.581 " />
<polyline points="145.548,164.167 147.197,164.311 " />
<polyline points="147.184,164.318 146.865,162.588 " />
<polyline points="149.11,179.231 151.259,176.991 " />
<polyline points="151.55,179.615 151.245,176.994 " />
<polyline points="149.11,179.231 151.564,179.612 " />
<polyline points="148.74,160.786 150.673,160.045 " />
<polyline points="142.026,180.799 143.958,180.057 " />
<polyline points="148.74,160.786 150.113,161.712 " />
<polyline points="142.026,180.799 143.398,181.725 " />
<polyline points="143.385,181.731 143.944,180.064 " />
<polyline points="150.099,161.719 150.659,160.051 " />
<polyline points="148.296,163.801 148.296,163.801 " />
<polyline points="153.537,159.78 153.537,159.78 " />
<polyline points="153.537,159.78 153.537,159.78 " />
<polyline points="147.96,172.988 147.96,172.988 " />
<polyline points="156.868,166.153 156.868,166.153 " />
<polyline points="156.868,166.153 156.868,166.153 " />
<polyline points="156.868,175.082 156.868,175.082 " />
<polyline points="156.868,175.082 156.868,175.082 " />
<polyline points="141.657,159.874 141.657,159.874 " />
<polyline points="142.377,159.78 142.377,159.78 " />
<polyline points="142.377,159.78 142.377,159.78 " />
<polyline points="144.849,169.383 144.849,169.383 " />
<polyline points="156.868,167.801 156.868,167.801 " />
<polyline points="137.589,180.268 137.589,180.268 " />
<polyline points="155.018,177.973 155.018,177.973 " />
<polyline points="156.868,161.349 156.868,161.349 " />
<polyline points="155.9,169.495 155.9,169.495 " />
<polyline points="141.168,168.872 141.168,168.872 " />
<polyline points="148.503,167.596 148.503,167.596 " />
<polyline points="155.116,173.656 155.116,173.656 " />
<polyline points="156.868,175.261 156.868,175.261 " />
<polyline points="139.022,176.418 139.022,176.418 " />
<polyline points="144.957,181.857 144.957,181.857 " />
<polyline points="7.84314,181.857 29.9209,181.857 29.9209,159.78 7.84314,159.78 7.84314,181.857 " />
<polyline points="7.84314,161.787 9.8504,159.78 " />
<polyline points="7.84314,171.544 19.6075,159.78 " />
<polyline points="7.84314,181.301 29.3646,159.78 " />
<polyline points="17.0439,181.857 29.9209,168.98 " />
<polyline points="26.801,181.857 29.9209,178.737 " />
<polyline points="18.6006,164.167 19.931,162.581 " />
<polyline points="18.6006,164.167 20.2501,164.311 " />
<polyline points="20.2365,164.318 19.9174,162.588 " />
<polyline points="22.1623,179.231 24.3119,176.991 " />
<polyline points="24.6027,179.615 24.2978,176.994 " />
<polyline points="22.1623,179.231 24.6168,179.612 " />
<polyline points="21.7931,160.786 23.7254,160.045 " />
<polyline points="15.0782,180.799 17.0106,180.057 " />
<polyline points="21.7931,160.786 23.1658,161.712 " />
<polyline points="15.0782,180.799 16.451,181.725 " />
<polyline points="16.4372,181.731 16.9968,180.064 " />
<polyline points="23.1521,161.719 23.7117,160.051 " />
<polyline points="21.3486,163.801 21.3486,163.801 " />
<polyline points="26.5895,159.78 26.5895,159.78 " />
<polyline points="26.5895,159.78 26.5895,159.78 " />
<polyline points="21.013,172.988 21.013,172.988 " />
<polyline points="29.9209,166.153 29.9209,166.153 " />
<polyline points="29.9209,166.153 29.9209,166.153 " />
<polyline points="29.9209,175.082 29.9209,175.082 " />
<polyline points="29.9209,175.082 29.9209,175.082 " />
<polyline points="14.7098,159.874 14.7098,159.874 " />
<polyline points="15.4293,159.78 15.4293,159.78 " />
<polyline points="15.4293,159.78 15.4293,159.78 " />
<polyline points="17.9017,169.383 17.9017,169.383 " />
<polyline points="29.9209,167.801 29.9209,167.801 " />
<polyline points="10.6417,180.268 10.6417,180.268 " />
<polyline points="28.0708,177.973 28.0708,177.973 " />
<polyline points="29.9209,161.349 29.9209,161.349 " />
<polyline points="28.9528,169.495 28.9528,169.495 " />
<polyline points="14.2208,168.872 14.2208,168.872 " />
<polyline points="21.556,167.596 21.556,167.596 " />
<polyline points="28.1687,173.656 28.1687,173.656 " />
<polyline points="29.9209,175.261 29.9209,175.261 " />
<polyline points="12.0744,176.418 12.0744,176.418 " />
<polyline points="18.01,181.857 18.01,181.857 " />
<polyline points="366.607,181.857 388.685,181.857 388.685,159.78 366.607,159.78 366.607,181.857 " />
<polyline points="366.607,161.787 368.615,159.78 " />
<polyline points="366.607,171.544 378.372,159.78 " />
<polyline points="366.607,181.301 388.129,159.78 " />
<polyline points="375.808,181.857 388.685,168.98 " />
<polyline points="385.565,181.857 388.685,178.737 " />
<polyline points="377.365,164.167 378.695,162.581 " />
<polyline points="377.365,164.167 379.014,164.311 " />
<polyline points="379.001,164.318 378.682,162.588 " />
<polyline points="380.927,179.231 383.076,176.991 " />
<polyline points="383.367,179.615 383.062,176.994 " />
<polyline points="380.927,179.231 383.381,179.612 " />
<polyline points="380.557,160.786 382.49,160.045 " />
<polyline points="373.842,180.799 375.775,180.057 " />
<polyline points="380.557,160.786 381.93,161.712 " />
<polyline points="373.842,180.799 375.215,181.725 " />
<polyline points="375.201,181.731 375.761,180.064 " />
<polyline points="381.916,161.719 382.476,160.051 " />
<polyline points="380.113,163.801 380.113,163.801 " />
<polyline points="385.354,159.78 385.354,159.78 " />
<polyline points="385.354,159.78 385.354,159.78 " />
<polyline points="379.777,172.988 379.777,172.988 " />
<polyline points="388.685,166.153 388.685,166.153 " />
<polyline points="388.685,166.153 388.685,166.153 " />
<polyline points="388.685,175.082 388.685,175.082 " />
<polyline points="388.685,175.082 388.685,175.082 " />
<polyline points="373.474,159.874 373.474,159.874 " />
<polyline points="374.193,159.78 374.193,159.78 " />
<polyline points="374.193,159.78 374.193,159.78 " />
<polyline points="376.666,169.383 376.666,169.383 " />
<polyline points="388.685,167.801 388.685,167.801 " />
<polyline points="369.406,180.268 369.406,180.268 " />
<polyline points="386.835,177.973 386.835,177.973 " />
<polyline points="388.685,161.349 388.685,161.349 " />
<polyline points="387.717,169.495 387.717,169.495 " />
<polyline points="372.985,168.872 372.985,168.872 " />
<polyline points="380.32,167.596 380.32,167.596 " />
<polyline points="386.933,173.656 386.933,173.656 " />
<polyline points="388.685,175.261 388.685,175.261 " />
<polyline points="370.839,176.418 370.839,176.418 " />
<polyline points="376.774,181.857 376.774,181.857 " />
<polyline points="493.555,181.857 515.632,181.857 515.632,159.78 493.555,159.78 493.555,181.857 " />
<polyline points="493.555,161.787 495.562,159.78 " />
<polyline points="493.555,171.544 505.319,159.78 " />
<polyline points="493.555,181.301 515.076,159.78 " />
<polyline points="502.755,181.857 515.632,168.98 " />
<polyline points="512.513,181.857 515.632,178.737 " />
<polyline points="504.312,164.167 505.643,162.581 " />
<polyline points="504.312,164.167 505.962,164.311 " />
<polyline points="505.948,164.318 505.629,162.588 " />
<polyline points="507.874,179.231 510.023,176.991 " />
<polyline points="510.314,179.615 510.009,176.994 " />
<polyline points="507.874,179.231 510.328,179.612 " />
<polyline points="507.505,160.786 509.437,160.045 " />
<polyline points="500.79,180.799 502.722,180.057 " />
<polyline points="507.505,160.786 508.877,161.712 " />
<polyline points="500.79,180.799 502.163,181.725 " />
<polyline points="502.149,181.731 502.708,180.064 " />
<polyline points="508.864,161.719 509.423,160.051 " />
<polyline points="507.06,163.801 507.06,163.801 " />
<polyline points="512.301,159.78 512.301,159.78 " />
<polyline points="512.301,159.78 512.301,159.78 " />
<polyline points="506.725,172.988 506.725,172.988 " />
<polyline points="515.632,166.153 515.632,166.153 " />
<polyline points="515.632,166.153 515.632,166.153 " />
<polyline points="515.632,175.082 515.632,175.082 " />
<polyline points="515.632,175.082 515.632,175.082 " />
<polyline points="500.421,159.874 500.421,159.874 " />
<polyline points="501.141,159.78 501.141,159.78 " />
<polyline points="501.141,159.78 501.141,159.78 " />
<polyline points="503.613,169.383 503.613,169.383 " />
<polyline points="515.632,167.801 515.632,167.801 " />
<polyline points="496.353,180.268 496.353,180.268 " />
<polyline points="513.782,177.973 513.782,177.973 " />
<polyline points="515.632,161.349 515.632,161.349 " />
<polyline points="514.664,169.495 514.664,169.495 " />
<polyline points="499.932,168.872 499.932,168.872 " />
<polyline points="507.268,167.596 507.268,167.596 " />
<polyline points="513.88,173.656 513.88,173.656 " />
<polyline points="515.632,175.261 515.632,175.261 " />
<polyline points="497.786,176.418 497.786,176.418 " />
<polyline points="503.721,181.857 503.721,181.857 " />
<polyline points="725.372,174.13 747.449,174.13 747.449,152.052 725.372,152.052 725.372,174.13 " />
<polyline points="725.372,154.06 727.379,152.052 " />
<polyline points="725.372,163.817 737.136,152.052 " />
<polyline points="725.372,173.574 746.893,152.052 " />
<polyline points="734.572,174.13 747.449,161.253 " />
<polyline points="744.329,174.13 747.449,171.01 " />
<polyline points="736.129,156.439 737.459,154.854 " />
<polyline points="736.129,156.439 737.779,156.584 " />
<polyline points="737.765,156.591 737.446,154.861 " />
<polyline points="739.691,171.504 741.84,169.264 " />
<polyline points="742.131,171.888 741.826,169.267 " />
<polyline points="739.691,171.504 742.145,171.885 " />
<polyline points="739.321,153.059 741.254,152.317 " />
<polyline points="732.607,173.071 734.539,172.33 " />
<polyline points="739.321,153.059 740.694,153.985 " />
<polyline points="732.607,173.071 733.979,173.997 " />
<polyline points="733.966,174.004 734.525,172.336 " />
<polyline points="740.68,153.992 741.24,152.324 " />
<polyline points="738.877,156.074 738.877,156.074 " />
<polyline points="744.118,152.052 744.118,152.052 " />
<polyline points="744.118,152.052 744.118,152.052 " />
<polyline points="738.541,165.261 738.541,165.261 " />
<polyline points="747.449,158.426 747.449,158.426 " />
<polyline points="747.449,158.426 747.449,158.426 " />
<polyline points="747.449,167.355 747.449,167.355 " />
<polyline points="747.449,167.355 747.449,167.355 " />
<polyline points="732.238,152.147 732.238,152.147 " />
<polyline points="732.958,152.052 732.958,152.052 " />
<polyline points="732.958,152.052 732.958,152.052 " />
<polyline points="735.43,161.656 735.43,161.656 " />
<polyline points="747.449,160.073 747.449,160.073 " />
<polyline points="728.17,172.54 728.17,172.54 " />
<polyline points="745.599,170.246 745.599,170.246 " />
<polyline points="747.449,153.621 747.449,153.621 " />
<polyline points="746.481,161.767 746.481,161.767 " />
<polyline points="731.749,161.145 731.749,161.145 " />
<polyline points="739.084,159.869 739.084,159.869 " />
<polyline points="745.697,165.929 745.697,165.929 " />
<polyline points="747.449,167.534 747.449,167.534 " />
<polyline points="729.603,168.691 729.603,168.691 " />
<polyline points="735.538,174.13 735.538,174.13 " />
<polyline points="134.79,405.947 156.868,405.947 156.868,383.869 134.79,383.869 134.79,405.947 " />
<polyline points="134.79,385.876 136.798,383.869 " />
<polyline points="134.79,395.634 146.555,383.869 " />
<polyline points="134.79,405.391 156.312,383.869 " />
<polyline points="143.991,405.947 156.868,393.07 " />
<polyline points="153.748,405.947 156.868,402.827 " />
<polyline points="145.548,388.256 146.878,386.671 " />
<polyline points="145.548,388.256 147.197,388.401 " />
<polyline points="147.184,388.407 146.865,386.678 " />
<polyline points="149.11,403.321 151.259,401.081 " />
<polyline points="151.55,403.705 151.245,401.084 " />
<polyline points="149.11,403.321 151.564,403.701 " />
<polyline points="148.74,384.876 150.673,384.134 " />
<polyline points="142.026,404.888 143.958,404.146 " />
<polyline points="148.74,384.876 150.113,385.802 " />
<polyline points="142.026,404.888 143.398,405.814 " />
<polyline points="143.385,405.821 143.944,404.153 " />
<polyline points="150.099,385.809 150.659,384.141 " />
<polyline points="148.296,387.891 148.296,387.891 " />
<polyline points="153.537,383.869 153.537,383.869 " />
<polyline points="153.537,383.869 153.537,383.869 " />
<polyline points="147.96,397.078 147.96,397.078 " />
<polyline points="156.868,390.242 156.868,390.242 " />
<polyline points="156.868,390.242 156.868,390.242 " />
<polyline points="156.868,399.172 156.868,399.172 " />
<polyline points="156.868,399.172 156.868,399.172 " />
<polyline points="141.657,383.964 141.657,383.964 " />
<polyline points="142.377,383.869 142.377,383.869 " />
<polyline points="142.377,383.869 142.377,383.869 " />
<polyline points="144.849,393.473 144.849,393.473 " />
<polyline points="156.868,391.89 156.868,391.89 " />
<polyline points="137.589,404.357 137.589,404.357 " />
<polyline points="155.018,402.063 155.018,402.063 " />
<polyline points="156.868,385.438 156.868,385.438 " />
<polyline points="155.9,393.584 155.9,393.584 " />
<polyline points="141.168,392.962 141.168,392.962 " />
<polyline points="148.503,391.686 148.503,391.686 " />
<polyline points="155.116,397.745 155.116,397.745 " />
<polyline points="156.868,399.351 156.868,399.351 " />
<polyline points="139.022,400.508 139.022,400.508 " />
<polyline points="144.957,405.947 144.957,405.947 " />
<polyline points="7.84314,405.947 29.9209,405.947 29.9209,383.869 7.84314,383.869 7.84314,405.947 " />
<polyline points="7.84314,385.876 9.8504,383.869 " />
<polyline points="7.84314,395.634 19.6075,383.869 " />
<polyline points="7.84314,405.391 29.3646,383.869 " />
<polyline points="17.0439,405.947 29.9209,393.07 " />
<polyline points="26.801,405.947 29.9209,402.827 " />
<polyline points="18.6006,388.256 19.931,386.671 " />
<polyline points="18.6006,388.256 20.2501,388.401 " />
<polyline points="20.2365,388.407 19.9174,386.678 " />
<polyline points="22.1623,403.321 24.3119,401.081 " />
<polyline points="24.6027,403.705 24.2978,401.084 " />
<polyline points="22.1623,403.321 24.6168,403.701 " />
<polyline points="21.7931,384.876 23.7254,384.134 " />
<polyline points="15.0782,404.888 17.0106,404.146 " />
<polyline points="21.7931,384.876 23.1658,385.802 " />
<polyline points="15.0782,404.888 16.451,405.814 " />
<polyline points="16.4372,405.821 16.9968,404.153 " />
<polyline points="23.1521,385.809 23.7117,384.141 " />
<polyline points="21.3486,387.891 21.3486,387.891 " />
<polyline points="26.5895,383.869 26.5895,383.869 " />
<polyline points="26.5895,383.869 26.5895,383.869 " />
<polyline points="21.013,397.078 21.013,397.078 " />
<polyline points="29.9209,390.242 29.9209,390.242 " />
<polyline points="29.9209,390.242 29.9209,390.242 " />
<polyline points="29.9209,399.172 29.9209,399.172 " />
<polyline points="29.9209,399.172 29.9209,399.172 " />
<polyline points="14.7098,383.964 14.7098,383.964 " />
<polyline points="15.4293,383.869 15.4293,383.869 " />
<polyline points="15.4293,383.869 15.4293,383.869 " />
<polyline points="17.9017,393.473 17.9017,393.473 " />
<polyline points="29.9209,391.89 29.9209,391.89 " />
<polyline points="10.6417,404.357 10.6417,404.357 " />
<polyline points="28.0708,402.063 28.0708,402.063 " />
<polyline points="29.9209,385.438 29.9209,385.438 " />
<polyline points="28.9528,393.584 28.9528,393.584 " />
<polyline points="14.2208,392.962 14.2208,392.962 " />
<polyline points="21.556,391.686 21.556,391.686 " />
<polyline points="28.1687,397.745 28.1687,397.745 " />
<polyline points="29.9209,399.351 29.9209,399.351 " />
<polyline points="12.0744,400.508 12.0744,400.508 " />
<polyline points="18.01,405.947 18.01,405.947 " />
<polyline points="366.607,405.947 388.685,405.947 388.685,383.869 366.607,383.869 366.607,405.947 " />
<polyline points="366.607,385.876 368.615,383.869 " />
<polyline points="366.607,395.634 378.372,383.869 " />
<polyline points="366.607,405.391 388.129,383.869 " />
<polyline points="375.808,405.947 388.685,393.07 " />
<polyline points="385.565,405.947 388.685,402.827 " />
<polyline points="377.365,388.256 378.695,386.671 " />
<polyline points="377.365,388.256 379.014,388.401 " />
<polyline points="379.001,388.407 378.682,386.678 " />
<polyline points="380.927,403.321 383.076,401.081 " />
<polyline points="383.367,403.705 383.062,401.084 " />
<polyline points="380.927,403.321 383.381,403.701 " />
<polyline points="380.557,384.876 382.49,384.134 " />
<polyline points="373.842,404.888 375.775,404.146 " />
<polyline points="380.557,384.876 381.93,385.802 " />
<polyline points="373.842,404.888 375.215,405.814 " />
<polyline points="375.201,405.821 375.761,404.153 " />
<polyline points="381.916,385.809 382.476,384.141 " />
<polyline points="380.113,387.891 380.113,387.891 " />
<polyline points="385.354,383.869 385.354,383.869 " />
<polyline points="385.354,383.869 385.354,383.869 " />
<polyline points="379.777,397.078 379.777,397.078 " />
<polyline points="388.685,390.242 388.685,390.242 " />
<polyline points="388.685,390.242 388.685,390.242 " />
<polyline points="388.685,399.172 388.685,399.172 " />
<polyline points="388.685,399.172 388.685,399.172 " />
<polyline points="373.474,383.964 373.474,383.964 " />
<polyline points="374.193,383.869 374.193,383.869 " />
<polyline points="374.193,383.869 374.193,383.869 " />
<polyline points="376.666,393.473 376.666,393.473 " />
<polyline points="388.685,391.89 388.685,391.89 " />
<polyline points="369.406,404.357 369.406,404.357 " />
<polyline points="386.835,402.063 386.835,402.063 " />
<polyline points="388.685,385.438 388.685,385.438 " />
<polyline points="387.717,393.584 387.717,393.584 " />
<polyline points="372.985,392.962 372.985,392.962 " />
<polyline points="380.32,391.686 380.32,391.686 " />
<polyline points="386.933,397.745 386.933,397.745 " />
<polyline points="388.685,399.351 388.685,399.351 " />
<polyline points="370.839,400.508 370.839,400.508 " />
<polyline points="376.774,405.947 376.774,405.947 " />
<polyline points="493.555,405.947 515.632,405.947 515.632,383.869 493.555,383.869 493.555,405.947 " />
<polyline points="493.555,385.876 495.562,383.869 " />
<polyline points="493.555,395.634 505.319,383.869 " />
<polyline points="493.555,405.391 515.076,383.869 " />
<polyline points="502.755,405.947 515.632,393.07 " />
<polyline points="512.513,405.947 515.632,402.827 " />
<polyline points="504.312,388.256 505.643,386.671 " />
<polyline points="504.312,388.256 505.962,388.401 " />
<polyline points="505.948,388.407 505.629,386.678 " />
<polyline points="507.874,403.321 510.023,401.081 " />
<polyline points="510.314,403.705 510.009,401.084 " />
<polyline points="507.874,403.321 510.328,403.701 " />
<polyline points="507.505,384.876 509.437,384.134 " />
<polyline points="500.79,404.888 502.722,404.146 " />
<polyline points="507.505,384.876 508.877,385.802 " />
<polyline points="500.79,404.888 502.163,405.814 " />
<polyline points="502.149,405.821 502.708,404.153 " />
<polyline points="508.864,385.809 509.423,384.141 " />
<polyline points="507.06,387.891 507.06,387.891 " />
<polyline points="512.301,383.869 512.301,383.869 " />
<polyline points="512.301,383.869 512.301,383.869 " />
<polyline points="506.725,397.078 506.725,397.078 " />
<polyline points="515.632,390.242 515.632,390.242 " />
<polyline points="515.632,390.242 515.632,390.242 " />
<polyline points="515.632,399.172 515.632,399.172 " />
<polyline points="515.632,399.172 515.632,399.172 " />
<polyline points="500.421,383.964 500.421,383.964 " />
<polyline points="501.141,383.869 501.141,383.869 " />
<polyline points="501.141,383.869 501.141,383.869 " />
<polyline points="503.613,393.473 503.613,393.473 " />
<polyline points="515.632,391.89 515.632,391.89 " />
<polyline points="496.353,404.357 496.353,404.357 " />
<polyline points="513.782,402.063 513.782,402.063 " />
<polyline points="515.632,385.438 515.632,385.438 " />
<polyline points="514.664,393.584 514.664,393.584 " />
<polyline points="499.932,392.962 499.932,392.962 " />
<polyline points="507.268,391.686 507.268,391.686 " />
<polyline points="513.88,397.745 513.88,397.745 " />
<polyline points="515.632,399.351 515.632,399.351 " />
<polyline points="497.786,400.508 497.786,400.508 " />
<polyline points="503.721,405.947 503.721,405.947 " />
<polyline points="725.372,405.947 747.449,405.947 747.449,383.869 725.372,383.869 725.372,405.947 " />
<polyline points="725.372,385.876 727.379,383.869 " />
<polyline points="725.372,395.634 737.136,383.869 " />
<polyline points="725.372,405.391 746.893,383.869 " />
<polyline points="734.572,405.947 747.449,393.07 " />
<polyline points="744.329,405.947 747.449,402.827 " />
<polyline points="736.129,388.256 737.459,386.671 " />
<polyline points="736.129,388.256 737.779,388.401 " />
<polyline points="737.765,388.407 737.446,386.678 " />
<polyline points="739.691,403.321 741.84,401.081 " />
<polyline points="742.131,403.705 741.826,401.084 " />
<polyline points="739.691,403.321 742.145,403.701 " />
<polyline points="739.321,384.876 741.254,384.134 " />
<polyline points="732.607,404.888 734.539,404.146 " />
<polyline points="739.321,384.876 740.694,385.802 " />
<polyline points="732.607,404.888 733.979,405.814 " />
<polyline points="733.966,405.821 734.525,404.153 " />
<polyline points="740.68,385.809 741.24,384.141 " />
<polyline points="738.877,387.891 738.877,387.891 " />
<polyline points="744.118,383.869 744.118,383.869 " />
<polyline points="744.118,383.869 744.118,383.869 " />
<polyline points="738.541,397.078 738.541,397.078 " />
<polyline points="747.449,390.242 747.449,390.242 " />
<polyline points="747.449,390.242 747.449,390.242 " />
<polyline points="747.449,399.172 747.449,399.172 " />
<polyline points="747.449,399.172 747.449,399.172 " />
<polyline points="732.238,383.964 732.238,383.964 " />
<polyline points="732.958,383.869 732.958,383.869 " />
<polyline points="732.958,383.869 732.958,383.869 " />
<polyline points="735.43,393.473 735.43,393.473 " />
<polyline points="747.449,391.89 747.449,391.89 " />
<polyline points="728.17,404.357 728.17,404.357 " />
<polyline points="745.599,402.063 745.599,402.063 " />
<polyline points="747.449,385.438 747.449,385.438 " />
<polyline points="746.481,393.584 746.481,393.584 " />
<polyline points="731.749,392.962 731.749,392.962 " />
<polyline points="739.084,391.686 739.084,391.686 " />
<polyline points="745.697,397.745 745.697,397.745 " />
<polyline points="747.449,399.351 747.449,399.351 " />
<polyline points="729.603,400.508 729.603,400.508 " />
<polyline points="735.538,405.947 735.538,405.947 " />
<polyline points="792.157,161.435 747.449,161.435 " />
<polyline points="792.157,158.676 747.449,158.676 " />
<polyline points="792.157,164.471 792.157,161.711 " />
<polyline points="493.555,158.676 461.818,158.676 " />
<polyline points="461.818,158.676 461.818,161.435 " />
<polyline points="461.818,161.435 493.555,161.435 " />
<polyline points="388.685,161.435 420.422,161.435 " />
<polyline points="420.422,161.435 420.422,158.676 " />
<polyline points="420.422,158.676 366.607,158.676 " />
<polyline points="461.818,160.056 451.469,142.131 " />
<path d="M451.469,142.131  A20.6979,20.6979 0 0,0 441.12,160.056 " />
<path d="M441.12,160.056  A20.6979,20.6979 0 0,0 430.771,142.131 " />
<polyline points="420.422,160.056 430.771,142.131 " />
<polyline points="366.607,161.435 156.868,161.435 " />
<polyline points="366.607,158.676 156.868,158.676 " />
<polyline points="134.79,158.676 103.054,158.676 " />
<polyline points="103.054,161.435 134.79,161.435 " />
<polyline points="29.9209,161.435 61.6578,161.435 " />
<polyline points="7.84314,159.78 7.84314,158.676 " />
<polyline points="103.054,160.056 92.7047,142.131 " />
<path d="M92.7047,142.131  A20.6979,20.6979 0 0,0 82.3557,160.056 " />
<path d="M82.3557,160.056  A20.6979,20.6979 0 0,0 72.0067,142.131 " />
<polyline points="61.6578,160.056 72.0067,142.131 " />
<polyline points="725.372,161.435 515.632,161.435 " />
<polyline points="725.372,158.676 493.555,158.676 " />
<polyline points="18.882,181.857 18.882,383.869 " />
<polyline points="18.882,405.947 18.882,453.69 " />
<polyline points="17.2262,181.857 17.2262,383.869 " />
<polyline points="17.2262,405.947 17.2262,460.314 " />
<polyline points="20.5379,181.857 20.5379,383.869 " />
<polyline points="20.5379,405.947 20.5379,453.69 " />
<polyline points="720.842,159.326 710.493,141.401 " />
<path d="M710.493,141.401  A20.6979,20.6979 0 0,0 700.144,159.326 " />
<path d="M700.144,159.326  A20.6979,20.6979 0 0,0 689.795,141.401 " />
<polyline points="679.446,159.326 689.795,141.401 " />
<polyline points="285.123,157.611 274.774,139.686 " />
<path d="M274.774,139.686  A20.6979,20.6979 0 0,0 264.425,157.611 " />
<path d="M264.425,157.611  A20.6979,20.6979 0 0,0 254.076,139.686 " />
<polyline points="243.727,157.611 254.076,139.686 " />
<polyline points="785.534,181.857 785.534,383.869 " />
<polyline points="785.534,405.947 785.534,453.69 " />
<polyline points="687.701,393.963 687.701,161.435 " />
<polyline points="684.942,391.204 684.942,161.435 " />
<polyline points="687.701,355.858 785.534,355.858 " />
<polyline points="687.701,353.098 785.534,353.098 " />
<polyline points="747.352,161.435 747.366,161.449 " />
<polyline points="146.795,159.78 146.795,237.314 " />
<polyline points="144.036,158.676 144.036,237.314 " />
<polyline points="146.795,155.916 146.795,164.195 " />
<polyline points="146.795,188.867 146.811,453.69 " />
<polyline points="146.798,266.305 146.798,313.215 " />
<polyline points="145.419,266.305 145.419,313.215 " />
<polyline points="145.415,188.867 145.419,241.467 " />
<polyline points="144.036,155.916 144.036,164.195 " />
<polyline points="144.036,188.867 144.051,453.69 " />
<polyline points="144.039,266.305 144.039,313.215 " />
<polyline points="30.89,161.435 144.036,161.435 " />
<polyline points="144.036,164.195 146.795,164.195 " />
<polyline points="30.89,158.676 144.036,158.676 " />
<polyline points="144.036,155.916 146.795,155.916 " />
<polyline points="20.5379,238.708 144.039,238.708 " />
<polyline points="144.039,241.467 146.798,241.467 " />
<polyline points="144.039,266.305 146.798,266.305 " />
<polyline points="20.5379,235.948 144.039,235.948 " />
<polyline points="144.036,209.717 146.795,209.717 " />
<polyline points="146.795,155.916 146.795,164.195 " />
<polyline points="146.795,209.717 146.798,157.282 " />
<polyline points="146.798,266.305 146.798,313.215 " />
<polyline points="145.419,266.305 145.419,313.215 " />
<polyline points="145.415,209.717 145.419,157.282 " />
<polyline points="144.036,155.916 144.036,164.195 " />
<polyline points="144.036,209.717 144.039,157.282 " />
<polyline points="144.039,266.305 144.039,313.215 " />
<polyline points="30.89,161.435 144.036,161.435 " />
<polyline points="144.036,164.195 146.795,164.195 " />
<polyline points="7.84314,158.676 144.036,158.676 " />
<polyline points="144.036,155.916 146.795,155.916 " />
<polyline points="20.5379,238.708 144.039,238.708 " />
<polyline points="144.039,241.467 146.798,241.467 " />
<polyline points="144.039,266.305 146.798,266.305 " />
<polyline points="20.5379,235.948 144.039,235.948 " />
<polyline points="144.036,209.717 146.795,209.717 " />
<polyline points="20.5379,315.98 144.039,315.98 " />
<polyline points="20.5379,313.22 144.039,313.22 " />
<polyline points="20.5379,315.98 144.039,315.98 " />
<polyline points="20.5379,313.22 144.039,313.22 " />
<polyline points="687.701,334.447 687.715,334.433 " />
<polyline points="687.701,257.174 687.715,257.161 " />
<polyline points="517.012,161.435 517.012,207.36 " />
<polyline points="515.632,161.435 515.632,205.966 " />
<polyline points="515.632,207.36 517.012,207.36 " />
<polyline points="654.585,453.69 654.585,393.991 " />
<polyline points="651.825,453.69 651.825,391.231 " />
<polyline points="654.598,393.977 687.687,393.977 " />
<polyline points="687.701,393.963 687.687,393.977 " />
<polyline points="651.839,391.217 684.928,391.217 " />
<polyline points="684.942,391.204 684.928,391.217 " />
<polyline points="651.825,388.474 651.839,388.46 " />
<polyline points="365.875,162.106 365.875,205.966 " />
<polyline points="364.495,162.106 364.495,207.36 " />
<polyline points="364.495,207.36 365.875,207.36 " />
<polyline points="365.889,205.98 515.619,205.98 " />
<polyline points="515.632,205.966 515.619,205.98 " />
<polyline points="365.875,205.966 365.889,205.98 " />
<polyline points="364.495,207.36 517.012,207.36 " />
<polyline points="654.585,391.231 654.587,435.376 " />
<polyline points="653.203,391.231 653.203,427.504 " />
<polyline points="651.825,391.231 651.827,435.376 " />
<polyline points="653.203,391.231 653.203,435.376 " />
<polyline points="651.827,435.376 654.585,435.376 " />
<polyline points="601.583,161.438 601.597,161.424 " />
<polyline points="602.961,161.435 598.823,161.435 " />
<polyline points="651.827,391.231 654.585,391.231 " />
<polyline points="676.649,393.988 654.582,393.991 " />
<polyline points="676.649,392.606 662.454,392.606 " />
<polyline points="676.649,391.228 654.582,391.231 " />
<polyline points="676.649,392.606 654.582,392.606 " />
<polyline points="654.582,391.231 654.582,393.988 " />
<polyline points="676.649,391.228 676.649,393.986 " />
<polyline name="房间一" points="29.9209,161.435 29.9209,181.857 20.5379,181.857 20.5379,235.948 144.038,235.941 144.038,181.857 134.79,181.857 134.79,161.435 29.9209,161.435 " />
<polyline name="房间二" points="20.5379,238.708 144.039,238.708 144.039,313.215 20.5379,313.215 20.5379,238.708 " />
<polyline name="房间三" points="20.5379,315.98 144.051,315.98 144.051,453.69 20.5379,453.69 20.5379,315.98 " />
<polyline name="房间四" points="651.825,453.69 146.811,453.72 146.811,181.857 156.868,181.857 156.868,161.435 364.495,161.435 364.495,207.36 517.012,207.36 517.012,161.435 684.942,161.435 684.942,391.204 651.825,391.204 651.825,453.69 " />
<polyline name="房间五" points="687.701,161.435 785.534,161.435 785.534,353.098 687.701,353.098 687.701,161.435 " />
<polyline name="房间六" points="687.701,355.858 687.687,393.977 654.585,393.991 654.585,453.69 785.534,453.69 785.534,355.858 687.701,355.858 " />
</g>
</svg>
